<svg xmlns="http://www.w3.org/2000/svg" viewBox="0 0 706.83 31.32"><defs><style>.cls-1{fill:#F2D9B3;}</style></defs><g id="Layer_2" data-name="Layer 2"><g id="Layer_1-2" data-name="Layer 1"><path class="cls-1" d="M480.66,31.32h13.56l-6.78-3.91Zm33.9-27.4L507.78,0,501,3.92l-6.78,3.91-6.78,3.92-6.78-3.92-6.79-3.91L467.09,0l-6.78,3.92-6.78,3.91-6.78,3.92,6.78,3.91,6.78,3.92,6.78-3.92-6.78-3.91,6.78-3.92,6.78,3.92,6.79,3.91-6.79,3.92L453.53,31.32h13.56l6.78-3.91,6.79-3.92,6.78-3.91,6.78,3.91,13.56,7.83h13.57l-6.79-3.91-6.78-3.92-13.56-7.83,13.56-7.83,6.78,3.92-6.78,3.91,6.78,3.92,6.79-3.92,6.78-3.91-6.78-3.92Zm-89.35,0L418.43,0l-6.78,3.92-6.78,3.91-6.78,3.92-6.78-3.92-6.79-3.91L377.74,0,371,3.92l-6.78,3.91-6.78,3.92L371,19.58l6.78-3.92L371,11.75l6.78-3.92,13.57,7.83-13.57,7.83L371,27.41l-6.78,3.91h13.56l13.57-7.83,6.78-3.91,6.78,3.91,6.78,3.92,6.78,3.91H432L411.65,19.58l-6.78-3.92,6.78-3.91,6.78-3.92,6.78,3.92-6.78,3.91,6.78,3.92L432,15.66l6.78-3.91L432,7.83ZM693.26,19.58l13.57-7.83L700,7.83l-6.78-3.91L686.48,0,679.7,3.92l-6.78,3.91-6.78,3.92-6.79-3.92-6.78-3.91L645.79,0,639,3.92l-6.78,3.91-6.78,3.92,6.78,3.91L639,19.58l6.78-3.92L639,11.75l6.78-3.92,13.56,7.83-13.56,7.83L639,27.41l-6.78,3.91h13.56l20.35-11.74,6.78,3.91,6.78,3.92,6.78,3.91H700l-13.56-7.83-6.78-3.91-6.78-3.92,6.78-3.91,6.78-3.92,6.78,3.92-6.78,3.91ZM391.31,31.32h13.56l-6.78-3.91Zm268,0h13.57l-6.78-3.91Zm-89.34,0h13.56l-6.78-3.91Zm33.9-27.4L597.13,0l-6.78,3.92-6.78,3.91-6.78,3.92L570,7.83l-6.79-3.91L556.44,0l-6.78,3.92-6.78,3.91-6.78,3.92,13.56,7.83,6.78-3.92-6.78-3.91,6.78-3.92,6.78,3.92L570,15.66l-6.79,3.92-6.78,3.91-6.78,3.92-6.78,3.91h13.56l6.78-3.91L570,23.49l6.78-3.91,13.56,7.83,6.78,3.91h13.56l-6.78-3.91-6.78-3.92-6.78-3.91-6.78-3.92,6.78-3.91,6.78-3.92,6.78,3.92-6.78,3.91,6.78,3.92,6.78-3.92,6.79-3.91-6.79-3.92Zm-391.3,27.4h13.56l-6.78-3.91Zm-89.35,0h13.56L130,27.41Zm33.91-27.4L150.38,0,143.6,3.92l-6.78,3.91L130,11.75l-6.78-3.92-6.78-3.91L109.69,0l-6.78,3.92L96.13,7.83l-6.78,3.92,6.78,3.91,6.78,3.92,6.78-3.92-6.78-3.91,6.78-3.92,6.79,3.92,6.78,3.91-6.78,3.92-13.57,7.83-6.78,3.91h13.56l6.79-3.91,6.78-3.92L130,19.58l6.78,3.91,6.78,3.92,6.78,3.91H164l-6.78-3.91L143.6,19.58l-6.78-3.92,6.78-3.91,6.78-3.92,6.79,3.92-6.79,3.91,6.79,3.92L164,15.66l6.78-3.91L164,7.83ZM67.82,19.58l13.56-7.83L74.6,7.83,67.82,3.92,61,0,54.25,3.92,47.47,7.83l-6.78,3.92L33.91,7.83,27.13,3.92,20.34,0,13.56,3.92,6.78,7.83,0,11.75l6.78,3.91,6.78,3.92,6.78-3.92-6.78-3.91,6.78-3.92,6.79,3.92,6.78,3.91-6.78,3.92-6.79,3.91L6.78,31.32H20.34l6.79-3.91,13.56-7.83,6.78,3.91,6.78,3.92L61,31.32H74.6L61,23.49l-6.78-3.91-6.78-3.92,6.78-3.91L61,7.83l6.79,3.92L61,15.66Zm268,0,13.57-7.83-6.78-3.92-6.79-3.91L329.08,0,322.3,3.92l-6.78,3.91-6.78,3.92L302,7.83l-6.78-3.91L288.39,0l-6.78,3.92-6.78,3.91-6.78,3.92,6.78,3.91,6.78,3.92,6.78-3.92-6.78-3.91,6.78-3.92,6.79,3.92L302,15.66l-6.78,3.92-6.79,3.91-6.78,3.92-6.78,3.91h13.56l6.79-3.91,13.56-7.83,6.78,3.91,6.78,3.92,6.78,3.91h13.57l-6.79-3.91-6.78-3.92-6.78-3.91-6.78-3.92,6.78-3.91,6.78-3.92,6.78,3.92-6.78,3.91Zm-302,11.74H47.47l-6.78-3.91Zm268,0h13.56l-6.78-3.91ZM246.51,3.92,239.73,0,233,3.92l-6.78,3.91-6.78,3.92-6.78-3.92-6.78-3.91L199,0l-6.78,3.92-6.78,3.91-6.78,3.92,13.56,7.83L199,15.66l-6.78-3.91L199,7.83l6.79,3.92,6.78,3.91-6.78,3.92L199,23.49l-13.56,7.83H199l6.79-3.91,6.78-3.92,6.78-3.91,20.34,11.74H253.3l-6.79-3.91-6.78-3.92-13.56-7.83,13.56-7.83,6.78,3.92-6.78,3.91,6.78,3.92,6.79-3.92,6.78-3.91L253.3,7.83Z"/></g></g></svg>